HIERARCHY
ROOT Hips
{
	OFFSET -14.64140 90.27770 -84.91600
	CHANNELS 6 Xposition Yposition Zposition Zrotation Xrotation Yrotation
	JOINT Spine
	{
		OFFSET 0.00000 13.20850 -1.60436
		CHANNELS 3 Zrotation Xrotation Yrotation
		JOINT Spine1
		{
			OFFSET 0.00000 8.61716 0.00000
			CHANNELS 3 Zrotation Xrotation Yrotation
			JOINT Spine2
			{
				OFFSET 0.00000 8.61717 0.00000
				CHANNELS 3 Zrotation Xrotation Yrotation
				JOINT Spine3
				{
					OFFSET 0.00000 8.61717 0.00000
					CHANNELS 3 Zrotation Xrotation Yrotation
					JOINT Neck
					{
						OFFSET 0.00000 11.07920 1.10792
						CHANNELS 3 Zrotation Xrotation Yrotation
						JOINT Neck1
						{
							OFFSET 0.00000 7.08032 0.00000
							CHANNELS 3 Zrotation Xrotation Yrotation
							JOINT Head
							{
								OFFSET 0.00000 7.08031 0.00000
								CHANNELS 3 Zrotation Xrotation Yrotation
								End site
								{
									OFFSET 0.00000 0.00000 0.00000
								}
							}
						}
					}
					JOINT RightShoulder
					{
						OFFSET -0.01000 7.91373 5.19711
						CHANNELS 3 Zrotation Xrotation Yrotation
						JOINT RightArm
						{
							OFFSET -18.41580 0.00000 0.00000
							CHANNELS 3 Zrotation Xrotation Yrotation
							JOINT RightForeArm
							{
								OFFSET -29.11090 0.00000 0.00000
								CHANNELS 3 Zrotation Xrotation Yrotation
								JOINT RightHand
								{
									OFFSET -24.65040 0.00000 0.00000
									CHANNELS 3 Zrotation Xrotation Yrotation
									JOINT RightHandThumb1
									{
										OFFSET -5.35114 -0.85590 3.97906
										CHANNELS 3 Zrotation Xrotation Yrotation
										JOINT RightHandThumb2
										{
											OFFSET -4.52789 0.00000 0.00000
											CHANNELS 3 Zrotation Xrotation Yrotation
											JOINT RightHandThumb3
											{
												OFFSET -2.46976 0.00000 0.00000
												CHANNELS 3 Zrotation Xrotation Yrotation
												End site
												{
													OFFSET 0.00000 0.00000 0.00000
												}
											}
										}
									}
									JOINT RightHandIndex1
									{
										OFFSET -14.26970 0.00000 2.88139
										CHANNELS 3 Zrotation Xrotation Yrotation
										JOINT RightHandIndex2
										{
											OFFSET -5.48836 0.00000 0.00000
											CHANNELS 3 Zrotation Xrotation Yrotation
											JOINT RightHandIndex3
											{
												OFFSET -3.01859 0.00000 0.00000
												CHANNELS 3 Zrotation Xrotation Yrotation
												End site
												{
													OFFSET 0.00000 0.00000 0.00000
												}
											}
										}
									}
									JOINT RightHandMiddle1
									{
										OFFSET -14.26970 0.00000 -0.09147
										CHANNELS 3 Zrotation Xrotation Yrotation
										JOINT RightHandMiddle2
										{
											OFFSET -6.17441 0.00000 0.00000
											CHANNELS 3 Zrotation Xrotation Yrotation
											JOINT RightHandMiddle3
											{
												OFFSET -3.56743 0.00000 0.00000
												CHANNELS 3 Zrotation Xrotation Yrotation
												End site
												{
													OFFSET 0.00000 0.00000 0.00000
												}
											}
										}
									}
									JOINT RightHandRing1
									{
										OFFSET -12.69180 0.00000 -3.06433
										CHANNELS 3 Zrotation Xrotation Yrotation
										JOINT RightHandRing2
										{
											OFFSET -5.62556 0.00000 0.00000
											CHANNELS 3 Zrotation Xrotation Yrotation
											JOINT RightHandRing3
											{
												OFFSET -3.56744 0.00000 0.00000
												CHANNELS 3 Zrotation Xrotation Yrotation
												End site
												{
													OFFSET 0.00000 0.00000 0.00000
												}
											}
										}
									}
									JOINT RightHandPinky1
									{
										OFFSET -11.11390 0.00000 -6.03719
										CHANNELS 3 Zrotation Xrotation Yrotation
										JOINT RightHandPinky2
										{
											OFFSET -4.52789 0.00000 0.00000
											CHANNELS 3 Zrotation Xrotation Yrotation
											JOINT RightHandPinky3
											{
												OFFSET -2.46976 0.00000 0.00000
												CHANNELS 3 Zrotation Xrotation Yrotation
												End site
												{
													OFFSET 0.00000 0.00000 0.00000
												}
											}
										}
									}
								}
							}
						}
					}
					JOINT LeftShoulder
					{
						OFFSET 0.01000 7.91373 5.19711
						CHANNELS 3 Zrotation Xrotation Yrotation
						JOINT LeftArm
						{
							OFFSET 18.41580 0.00000 0.00000
							CHANNELS 3 Zrotation Xrotation Yrotation
							JOINT LeftForeArm
							{
								OFFSET 29.11090 0.00000 0.00000
								CHANNELS 3 Zrotation Xrotation Yrotation
								JOINT LeftHand
								{
									OFFSET 24.65040 0.00000 0.00000
									CHANNELS 3 Zrotation Xrotation Yrotation
									JOINT LeftHandThumb1
									{
										OFFSET 5.35114 -0.85590 3.97906
										CHANNELS 3 Zrotation Xrotation Yrotation
										JOINT LeftHandThumb2
										{
											OFFSET 4.52789 0.00000 0.00000
											CHANNELS 3 Zrotation Xrotation Yrotation
											JOINT LeftHandThumb3
											{
												OFFSET 2.46977 0.00000 0.00000
												CHANNELS 3 Zrotation Xrotation Yrotation
												End site
												{
													OFFSET 0.00000 0.00000 0.00000
												}
											}
										}
									}
									JOINT LeftHandIndex1
									{
										OFFSET 14.26970 0.00000 2.88139
										CHANNELS 3 Zrotation Xrotation Yrotation
										JOINT LeftHandIndex2
										{
											OFFSET 5.48836 0.00000 0.00000
											CHANNELS 3 Zrotation Xrotation Yrotation
											JOINT LeftHandIndex3
											{
												OFFSET 3.01859 0.00000 0.00000
												CHANNELS 3 Zrotation Xrotation Yrotation
												End site
												{
													OFFSET 0.00000 0.00000 0.00000
												}
											}
										}
									}
									JOINT LeftHandMiddle1
									{
										OFFSET 14.26970 0.00000 -0.09147
										CHANNELS 3 Zrotation Xrotation Yrotation
										JOINT LeftHandMiddle2
										{
											OFFSET 6.17440 0.00000 0.00000
											CHANNELS 3 Zrotation Xrotation Yrotation
											JOINT LeftHandMiddle3
											{
												OFFSET 3.56744 0.00000 0.00000
												CHANNELS 3 Zrotation Xrotation Yrotation
												End site
												{
													OFFSET 0.00000 0.00000 0.00000
												}
											}
										}
									}
									JOINT LeftHandRing1
									{
										OFFSET 12.69180 0.00000 -3.06433
										CHANNELS 3 Zrotation Xrotation Yrotation
										JOINT LeftHandRing2
										{
											OFFSET 5.62556 0.00000 0.00000
											CHANNELS 3 Zrotation Xrotation Yrotation
											JOINT LeftHandRing3
											{
												OFFSET 3.56744 0.00000 0.00000
												CHANNELS 3 Zrotation Xrotation Yrotation
												End site
												{
													OFFSET 0.00000 0.00000 0.00000
												}
											}
										}
									}
									JOINT LeftHandPinky1
									{
										OFFSET 11.11390 0.00000 -6.03719
										CHANNELS 3 Zrotation Xrotation Yrotation
										JOINT LeftHandPinky2
										{
											OFFSET 4.52789 0.00000 0.00000
											CHANNELS 3 Zrotation Xrotation Yrotation
											JOINT LeftHandPinky3
											{
												OFFSET 2.46976 0.00000 0.00000
												CHANNELS 3 Zrotation Xrotation Yrotation
												End site
												{
													OFFSET 0.00000 0.00000 0.00000
												}
											}
										}
									}
								}
							}
						}
					}
					JOINT pCube4
					{
						OFFSET 0.00000 10.91090 1.10792
						CHANNELS 3 Zrotation Xrotation Yrotation
						End site
						{
							OFFSET 0.00000 0.00000 0.00000
						}
					}
				}
			}
		}
	}
	JOINT RightUpLeg
	{
		OFFSET -9.98441 0.00000 0.00000
		CHANNELS 3 Zrotation Xrotation Yrotation
		JOINT RightLeg
		{
			OFFSET 0.00000 -42.11790 0.00000
			CHANNELS 3 Zrotation Xrotation Yrotation
			JOINT RightFoot
			{
				OFFSET 0.00000 -45.00020 -0.00001
				CHANNELS 3 Zrotation Xrotation Yrotation
				JOINT RightForeFoot
				{
					OFFSET 0.00000 -3.74820 0.00000
					CHANNELS 3 Zrotation Xrotation Yrotation
					JOINT RightToeBase
					{
						OFFSET 0.00000 0.06325 14.43120
						CHANNELS 3 Zrotation Xrotation Yrotation
						End site
						{
							OFFSET 0.00000 0.00000 0.00000
						}
					}
				}
			}
		}
	}
	JOINT LeftUpLeg
	{
		OFFSET 9.98441 0.00000 0.00000
		CHANNELS 3 Zrotation Xrotation Yrotation
		JOINT LeftLeg
		{
			OFFSET 0.00000 -42.11800 0.00000
			CHANNELS 3 Zrotation Xrotation Yrotation
			JOINT LeftFoot
			{
				OFFSET 0.00000 -45.00070 0.00000
				CHANNELS 3 Zrotation Xrotation Yrotation
				JOINT LeftForeFoot
				{
					OFFSET 0.00000 -3.74824 0.00000
					CHANNELS 3 Zrotation Xrotation Yrotation
					JOINT LeftToeBase
					{
						OFFSET 0.00000 0.06325 14.43110
						CHANNELS 3 Zrotation Xrotation Yrotation
						End site
						{
							OFFSET 0.00000 0.00000 0.00000
						}
					}
				}
			}
		}
	}
}
MOTION
Frames: 4
Frame Time: 0.050000
0.029699508299676554 0.043420695069058046 -0.037031248787872006 -0.024600305504406318 0.003865265711569074 0.02821427684749572 -3.2621547911283093 -0.08794350978659124 -0.7591861334676417 -0.9839057026719829 3.783597600553965 0.3634014957364927 -1.3223670027078536 -1.963539882480003 -0.03140548060875917 -0.27069787305331294 0.379509568568963 -0.6810047194546214 0.22839224153699475 12.288046436636389 -0.335112078445095 0.15517288260543943 -1.2297083029841778 -2.8833356628297797 0.5274129306863424 -17.291178650172316 -0.305034254040805 -5.309530881702756 1.9628656672603408 -14.72124621483677 71.86463867105863 30.917951237503043 11.289945823230028 1.3338362280290421 3.578008287237645 91.2819268977999 17.32805368974706 -0.6535587486820206 -4.28911750912526 4.571673695092895 -0.09854046900356604 -1.5996406568761004 -0.009354719497088047 -0.0021499818325795626 -56.19391179136097 -0.026067801832875832 0.03566883503334422 -56.25912936763487 -38.78355285757802 0.009939730687873386 -0.017781219159044338 0.0033002357164559613 -0.0495464340403669 -0.039080288914155686 -0.014083526108132197 0.046046637584343415 0.008884341361930781 -36.70493509885654 0.009058022241027485 -0.02533328894680328 -0.01803093847033322 0.00773590359550551 -0.026763825621771275 0.0380920649468473 -0.011765715364995053 0.0175574133049152 -19.711423482885113 0.03578942412986887 -0.037331211849431015 -0.006463959941755167 -0.0021026794722314663 0.02710167033976998 0.02795883721993528 0.04749297680417311 -0.037998034382605676 24.038628615530836 -0.036760156188591124 0.014996230535899237 28.852474707357295 -0.006504114406651583 0.03818990717857454 28.880252820489403 0.025424505071816574 -0.028238823181086812 4.856478707373997 1.134073028023708 13.152630969154329 -74.08065824198144 30.59169280794945 -3.6747739491891904 1.3835995025827736 -8.106933543662423 -40.55991514898119 -15.643238845667337 -2.4104626067234105 5.5586824592767385 -0.4756863372689003 0.08582885727672263 -8.133376221160434 -0.003998477919803636 -0.025339914537534924 44.60388365625927 0.011899340963129721 -0.02148422412038703 44.577722532802575 12.423429527449917 0.039063747676585964 0.0041770830006970456 0.017504300722906336 -0.011202016658234967 0.04514014298393822 0.0010003652439083601 -0.025165205600007408 0.014738225766734758 11.068709237793755 0.031003826977246976 -0.00871352264860234 0.025342905880223945 0.046577769460343074 0.002813156529048158 0.04090865300897842 -0.020977523862692953 -0.010343072457380122 4.789790450564445 -0.03336577345069186 0.02974553161799885 -0.04375682635521982 0.04284172806410705 -0.031292042140530656 -0.01668414292534456 0.007575765753333236 -0.024922053294255498 -5.567262032115596 0.023270019971661837 -0.020225145392074748 -6.737359373642653 0.0062586359041932466 -0.021457407201942436 -6.760680555585706 0.03807053647940489 -0.04658788256294077 -0.04469633220487786 -0.0332073005491646 0.006551166511044023 8.049524847896125 3.4769444075788063 -19.219512509712885 0.004323333571189082 10.43827748431479 -0.026603390017276646 -5.579105272952291 -15.62588570003531 3.1493372636159993 -0.01857128653069019 -0.029954451181068327 0.01832819437009709 -0.0015629111767792609 4.732836050109538 -0.03688766298802455 12.461485549624237 -8.267381266088263 6.837005579319585 0.02462264776540645 46.36374173845232 -0.028299089011547526 -4.314296357176066 -14.767654471392172 -3.8418160057272215 -0.009157231845808746 0.04898537542218525 0.04713793852966178 -0.02747401069939592 -10.729645146070974 -0.01589173350811556 
-0.01174254560882108 -0.011451862350771084 -0.02981065019323297 0.019859685876086147 0.04769221614447203 0.04081551908811171 -3.160225579885134 -0.22250320358652664 -0.7769117080327925 -0.9703742850331143 3.734749431881225 0.3875213922523952 -1.2778819807401647 -1.9329121993109983 -0.03360446778358606 -0.11284882021662807 0.3324236569398996 -0.6759245992368644 0.3303291465890674 12.097378648182683 -0.6884779734411979 0.10225719160584303 -1.2322142707501473 -3.815461992520704 0.621288677737103 -17.35383297357362 -0.33925492407293056 -5.320956675096493 1.9848065480301105 -14.623812775629006 70.80358716331362 31.33928644087036 11.83938300490421 1.9733370682453573 3.509388350433557 91.41605013551074 16.649303498893254 -0.6507567100924638 -4.087749964698634 4.525949560751151 -0.1359110714489445 -1.5749741487783635 0.03248379739132457 -0.03911944490351892 -56.24450721368111 0.021645160697519792 0.031959709750398455 -56.2817405990446 -38.75816149757069 0.02123427413805429 0.035776583028467625 -0.02158349770059852 -0.04499262247594472 -0.03684611342009112 -0.02142267065634656 0.007093949222688878 -0.03860656726234337 -36.67566756156641 -0.0017609031394852476 -0.03763516461450513 -0.04523939837926744 -0.0361633855178697 -0.031228682572818297 -0.011344721046627114 0.018556213009811768 0.011589372624163893 -19.78288735594819 -0.0034089100263261733 0.03147760246397798 -0.007645481470681211 -0.012588570569999272 0.03042307947552599 -0.008667106884322713 -0.04237309905493539 -0.04707071876593174 24.042186224321092 0.00902308091897639 -0.025183716384174153 28.835907245362637 0.006065537996417856 -0.04267634215860966 28.81986859968082 0.02785106551677589 0.04053799919842729 4.631187734301672 1.0653083445031482 13.068639627033122 -73.89453449844534 31.038858962090245 -3.303616783200592 0.5629001592345434 -7.695487780232718 -40.649028121771885 -15.578035486389469 -2.286891802601746 5.229234921121055 -0.5080378903720908 0.05834165504174387 -8.125703996349685 -0.04784386038105747 0.04669755876674506 44.617365975802024 0.017645328573821138 -0.011416393376442305 44.519808715530516 12.4507097013755 0.029139388020369354 0.034541669273407426 -0.013300712114348783 -0.035131484014418526 -0.03306048804939275 0.009206636374202295 -0.02584441832478305 -0.021498943411160223 11.13317793741187 -0.0340964956080117 0.004323060285262878 -0.011381417928888013 -0.04817445321407955 0.029856151721764278 0.03035569648292696 -0.03791497137668272 -0.0013473855473254467 4.737868271839733 0.015594945976796998 0.04597396175556094 -0.005587222091504244 0.03499600725937501 -0.01813112946216273 0.015506037225370032 0.012906114165202567 -0.035642059094702895 -5.591979622006591 0.047645623691412745 0.018059357098278963 -6.674898066984198 -0.02007407349164224 -0.043371275386786284 -6.716448887891553 0.03345807675755428 -0.04684347112402012 -0.006505830576063921 -0.008966491182805023 -0.02159654846581612 8.063623095099926 3.449339396302965 -19.233917083585585 -0.0380134730676436 10.396271940798627 0.041380556407827764 -5.576253429403529 -15.682172912608046 3.1728560083789166 -0.0047099597391612865 -0.0066291470984516715 -0.014298199513735795 -0.01354047536477835 4.678894742374563 -0.039962648741747236 12.49478771353679 -8.227275637925278 6.857660852649571 -0.03504514439225494 46.395853084018206 -0.024793159884479846 -4.355909774107347 -14.70503507403503 -3.854719450511971 -0.0025411699779034234 0.031163628264027844 0.004231938619914403 -0.04990287745145963 -10.753815244137833 -0.03022002423784119 
0.01910102816286507 0.0346335511150297 0.012809516658430473 -0.01803004524129138 -0.014249425531567697 0.016184514383243163 -2.976086784234552 -0.3071784009399162 -0.8178731072486832 -1.0063073867061705 3.7359205991851705 0.4245552858678769 -1.302989319033603 -1.8916618951410902 0.10163751800036137 -0.011500874391038328 0.34500899458800816 -0.6732890592739744 0.5075707362638178 11.982568379958234 -1.050633408653559 0.09401210008518428 -1.291234663062877 -4.813122049711761 0.6800514720938069 -17.36445203200284 -0.47589421218942907 -5.345157906385793 1.9147729183746776 -14.542685001858207 69.77683569313422 32.115875206455755 12.452410467395971 2.1911792609650873 3.3033796430289972 90.56108484366221 16.10820642790336 -0.6288579793120102 -3.9445102030246844 4.540074602577364 -0.13247076497814508 -1.5971208876605574 -0.03355893899190029 -0.017723606710714213 -56.233595051509596 0.006594067352768222 -0.03491750297250034 -56.2101580010042 -38.773825575564636 -0.025540895407008636 0.04961744865912089 -0.04639792914726184 -0.04723082163371036 0.003236709722445838 -0.025306703201275586 0.005065224596757925 0.007338589349930627 -36.68607793248416 0.003678715561975981 0.033562424388329105 -0.02809848981514225 -0.047561397664950385 -0.02989514352511855 -0.003956667012539594 0.01702412226708383 0.046981313667027104 -19.806699269331123 0.028404606917256665 0.03632902633417479 -0.04072247599255009 -0.02909009933202186 -0.04850288874249814 0.04766449761215167 -0.006364935216258085 0.029359460599834627 24.049023381566652 0.024911409232174407 -0.017571244181279883 28.8606605197645 -0.011094660157843527 -0.01186125991671359 28.85200140638693 -0.04333507776837223 -0.028295084367791205 4.368737193331752 1.0745210731772588 13.043238856100867 -73.59629904560384 31.331925439296363 -2.7953086528906437 0.38022984074626365 -7.618100878507118 -40.7834704100165 -15.360104398607799 -2.002345038300425 4.9417237481618335 -0.47310575781474445 0.07909601603782127 -8.109829767655645 0.00726340630002958 0.008329016737541908 44.567847623900484 0.013960130803125933 0.039285290711302594 44.57369682215061 12.451272419118888 -0.002572712451812322 -0.014129138417052978 -0.04650264000902318 0.026921290285967674 -0.006353683424629291 -8.382860073226284e-05 -0.011651929664358176 0.015312429266415906 11.06641352841205 -0.007936515385888717 0.029798437155959204 0.032014616823428495 0.04401917991508812 0.004362300674443809 0.02325753182413988 0.005702466013598272 -0.01166874429269384 4.750178913566604 -0.027543749168614535 0.012786753178408428 -0.03478332908439951 -0.03661360495147509 0.014914459792520615 0.0373593003376847 0.04326076477629985 -0.03416199884013205 -5.643068799767326 -0.028734442206307262 0.04237823422324494 -6.730187893114148 0.03454160906690804 0.019822860301481015 -6.743525960113842 0.04184326027091636 0.04556016815430052 0.01195654047945984 0.04816105529672441 0.03666849190523256 8.050991269948627 3.5182954912946167 -19.19676556913186 0.0021497476111418633 10.40847494539974 -0.005946113657603298 -5.6488770341781676 -15.637723390781467 3.2125829025652264 0.03558481982354575 0.03556010416293378 0.0049473936420998494 -0.049109184788463454 4.687895586764471 0.034079150202694 12.507890806889778 -8.23787576841856 6.889145207633259 0.04043560203643444 46.403873000495445 -0.033227094239873085 -4.323775652202667 -14.73761039525524 -3.8650976033563818 0.0014511018130864105 -0.04831190008957212 -0.036815349809065784 -0.008056613830520417 -10.768269292014045 0.0097331088245491 
-0.01730698771387668 -0.02343622466312641 -0.023545363919589547 -0.041976390748145784 -0.021447460445320737 -0.04384287113616271 -2.8839184022371276 -0.3735310642220027 -0.827619100509688 -0.9879010560045342 3.78039447322974 0.4243256705168808 -1.3458054379824076 -1.869105197123146 0.25980319572965943 -0.006586645142267086 0.2747413729536555 -0.6672020149533203 0.5639210190218065 11.90422575629154 -1.3554747772556681 0.07690494770611142 -1.293635121482642 -5.711574428467602 0.7471709096145251 -17.340591925290898 -0.4809362635456453 -5.427742168949256 1.9073597734860763 -14.423064109329214 69.02722563433197 33.01969299857311 13.67344780955069 1.9805499191749925 2.8886081064009717 90.6652903474835 15.757731118594615 -0.6318869579864301 -3.8019688548009634 4.533155698780871 -0.123655082716081 -1.5889794283157608 0.01968814297219009 0.019164786351068205 -56.27786630908617 0.043024024155170766 -0.045982677761517626 -56.2232114853027 -38.79410365896144 -0.015636359755046604 -0.02112888076607944 -0.016960687827639955 0.046615042305875924 -0.03383757249955458 0.004277327219420337 -0.027707615622039813 0.045612626142080656 -36.68151768134069 -0.030295009246473784 0.04473042289472158 0.02705013194086656 0.005214449372990982 -0.027551018904259716 0.03863914056601476 0.0119459891051603 0.008548832511084861 -19.785433679468365 0.03898650003077885 0.02235911399019383 -0.005992171254357908 0.04198082370981992 -0.002400061698599691 0.02368224121537758 -0.016433690998532664 -0.0005242394602465928 24.01440658485943 0.0008285477051409465 0.04145280653092953 28.873804136430707 -0.0006028651033186651 -0.03357423260904165 28.89168977886713 -0.014112889501809904 0.00948008725799393 4.185666864824369 1.0142845156113052 12.997974627494935 -73.37239834519042 31.506199994529414 -2.3640316129567434 0.5649333293433862 -8.047758158792094 -41.02635803670281 -15.2544079882685 -1.85819560144996 4.640508920738931 -0.49990777413556536 0.10114681576871692 -8.08581247067239 -0.044850900094944045 -0.028049939430374392 44.560958727296395 -0.019816208176622604 0.032084582104868475 44.55715330201308 12.450729653406352 0.02897873725145502 0.031184384375625263 0.022071215534208696 -0.010851171982578511 0.028042329947941664 -0.03604320215174249 0.04330040583621304 0.043283495863649865 11.060053085055685 -0.01831752878338176 -0.035675654848898494 -0.010596868305116372 -0.016251878553237405 -0.0410391154967379 -0.014210270429975528 -0.007597363694375967 0.016454568502947506 4.81428821883572 0.010627577100172382 -0.03025091554542703 -0.01648554793801047 0.011828604391130482 0.030128366959775953 0.015170192697581145 -0.022737531590106597 0.003173745316525024 -5.635524242445337 -0.019375050961424566 0.012904948429583563 -6.7257200018355725 0.012879711589440547 0.0016050069107805237 -6.6774098411288705 0.012618928437899055 -0.0286832601456328 -0.010724038039700418 0.04324499721514968 0.04410894470903251 8.058201069458173 3.503347996396763 -19.25260172945436 -0.04953499143501079 10.393587370785138 0.0275895788407699 -5.664019787821006 -15.613613829871387 3.186336611639673 0.034539026173508965 0.0003804853428164981 -0.0030829554958762234 -0.012612504502521498 4.699259155208069 0.013086362141560132 12.49288726584377 -8.235805792376942 6.907177881435154 0.02350179903141031 46.35857053625753 0.003489978398085444 -4.330598738182209 -14.791964733001267 -3.86976147986476 0.041508580726317336 -0.012804756608733746 -0.03258932020357848 -0.03934650316523382 -10.79067844670032 0.0069151625270484724 
